<mxfile host="app.diagrams.net">
  <diagram id="Table1" name="2016-2024 GPU/CPU Table">
    <mxGraphModel dx="1200" dy="800" grid="1" gridSize="10" guides="1" tooltips="1" connect="1" arrows="1" fold="1" page="1" pageScale="1" pageWidth="850" pageHeight="1100" math="0" shadow="0">
      <root>
        <mxCell id="0"/>
        <mxCell id="1" parent="0"/>
        <!-- Column Headers -->
        <mxCell id="h0" value="" style="text;html=1;strokeColor=none;fillColor=none;" vertex="1" parent="1">
          <mxGeometry x="0" y="0" width="200" height="40" as="geometry"/>
        </mxCell>
        <mxCell id="h1" value="Nvidia P100 (2016)" style="text;html=1;fontSize=12;fontStyle=1;strokeColor=none;fillColor=none;align=center;" vertex="1" parent="1">
          <mxGeometry x="200" y="0" width="120" height="40" as="geometry"/>
        </mxCell>
        <mxCell id="h2" value="Intel E7-8894 v4 (2016)" style="text;html=1;fontSize=12;fontStyle=1;strokeColor=none;fillColor=none;align=center;" vertex="1" parent="1">
          <mxGeometry x="320" y="0" width="140" height="40" as="geometry"/>
        </mxCell>
        <mxCell id="h3" value="Nvidia V100 (2017)" style="text;html=1;fontSize=12;fontStyle=1;strokeColor=none;fillColor=none;align=center;" vertex="1" parent="1">
          <mxGeometry x="460" y="0" width="120" height="40" as="geometry"/>
        </mxCell>
        <mxCell id="h4" value="Intel Platinum 8180 (2017)" style="text;html=1;fontSize=12;fontStyle=1;strokeColor=none;fillColor=none;align=center;" vertex="1" parent="1">
          <mxGeometry x="580" y="0" width="150" height="40" as="geometry"/>
        </mxCell>
        <mxCell id="h5" value="Nvidia A100 (2020)" style="text;html=1;fontSize=12;fontStyle=1;strokeColor=none;fillColor=none;align=center;" vertex="1" parent="1">
          <mxGeometry x="730" y="0" width="120" height="40" as="geometry"/>
        </mxCell>
        <mxCell id="h6" value="Intel Platinum 9282 (2020)" style="text;html=1;fontSize=12;fontStyle=1;strokeColor=none;fillColor=none;align=center;" vertex="1" parent="1">
          <mxGeometry x="850" y="0" width="160" height="40" as="geometry"/>
        </mxCell>
        <mxCell id="h7" value="Nvidia H100 (2022)" style="text;html=1;fontSize=12;fontStyle=1;strokeColor=none;fillColor=none;align=center;" vertex="1" parent="1">
          <mxGeometry x="1010" y="0" width="120" height="40" as="geometry"/>
        </mxCell>
        <mxCell id="h8" value="Intel Platinum 8490H (2022)" style="text;html=1;fontSize=12;fontStyle=1;strokeColor=none;fillColor=none;align=center;" vertex="1" parent="1">
          <mxGeometry x="1130" y="0" width="170" height="40" as="geometry"/>
        </mxCell>
        <mxCell id="h9" value="Nvidia B100 (2024)" style="text;html=1;fontSize=12;fontStyle=1;strokeColor=none;fillColor=none;align=center;" vertex="1" parent="1">
          <mxGeometry x="1300" y="0" width="120" height="40" as="geometry"/>
        </mxCell>
        <mxCell id="h10" value="Intel Max 6700/8500 (2024)" style="text;html=1;fontSize=12;fontStyle=1;strokeColor=none;fillColor=none;align=center;" vertex="1" parent="1">
          <mxGeometry x="1420" y="0" width="150" height="40" as="geometry"/>
        </mxCell>
        <!-- Row Names -->
        <mxCell id="r1" value="<b>Cores</b>" style="text;html=1;fontSize=12;fontStyle=1;strokeColor=none;fillColor=none;" vertex="1" parent="1">
          <mxGeometry x="0" y="40" width="200" height="32" as="geometry"/>
        </mxCell>
        <mxCell id="r2" value="<b>Threads</b>" style="text;html=1;fontSize=12;fontStyle=1;strokeColor=none;fillColor=none;" vertex="1" parent="1">
          <mxGeometry x="0" y="72" width="200" height="32" as="geometry"/>
        </mxCell>
        <mxCell id="r3" value="<b>Peak INT32 TIPS</b>" style="text;html=1;fontSize=12;fontStyle=1;strokeColor=none;fillColor=none;" vertex="1" parent="1">
          <mxGeometry x="0" y="104" width="200" height="32" as="geometry"/>
        </mxCell>
        <mxCell id="r4" value="<b>Peak FP32 TFLOPS</b>" style="text;html=1;fontSize=12;fontStyle=1;strokeColor=none;fillColor=none;" vertex="1" parent="1">
          <mxGeometry x="0" y="136" width="200" height="32" as="geometry"/>
        </mxCell>
        <mxCell id="r5" value="<b>Peak FP64 TFLOPS</b>" style="text;html=1;fontSize=12;fontStyle=1;strokeColor=none;fillColor=none;" vertex="1" parent="1">
          <mxGeometry x="0" y="168" width="200" height="32" as="geometry"/>
        </mxCell>
        <mxCell id="r6" value="<b>Memory Bandwidth (GB/s)</b>" style="text;html=1;fontSize=12;fontStyle=1;strokeColor=none;fillColor=none;" vertex="1" parent="1">
          <mxGeometry x="0" y="200" width="200" height="32" as="geometry"/>
        </mxCell>
        <mxCell id="r7" value="<b>Approx. Cost (MSRP, USD)</b>" style="text;html=1;fontSize=12;fontStyle=1;strokeColor=none;fillColor=none;" vertex="1" parent="1">
          <mxGeometry x="0" y="232" width="200" height="32" as="geometry"/>
        </mxCell>
        <mxCell id="r8" value="<b>Peak Power (W)</b>" style="text;html=1;fontSize=12;fontStyle=1;strokeColor=none;fillColor=none;" vertex="1" parent="1">
          <mxGeometry x="0" y="264" width="200" height="32" as="geometry"/>
        </mxCell>
        <!-- Table Cells -->
        <!-- Row 1: Cores -->
        <mxCell id="c11" value="3,584" style="text;html=1;" vertex="1" parent="1"><mxGeometry x="200" y="40" width="120" height="32" as="geometry"/></mxCell>
        <mxCell id="c12" value="24" style="text;html=1;" vertex="1" parent="1"><mxGeometry x="320" y="40" width="140" height="32" as="geometry"/></mxCell>
        <mxCell id="c13" value="5,120" style="text;html=1;" vertex="1" parent="1"><mxGeometry x="460" y="40" width="120" height="32" as="geometry"/></mxCell>
        <mxCell id="c14" value="28" style="text;html=1;" vertex="1" parent="1"><mxGeometry x="580" y="40" width="150" height="32" as="geometry"/></mxCell>
        <mxCell id="c15" value="6,912" style="text;html=1;" vertex="1" parent="1"><mxGeometry x="730" y="40" width="120" height="32" as="geometry"/></mxCell>
        <mxCell id="c16" value="56" style="text;html=1;" vertex="1" parent="1"><mxGeometry x="850" y="40" width="160" height="32" as="geometry"/></mxCell>
        <mxCell id="c17" value="14,592" style="text;html=1;" vertex="1" parent="1"><mxGeometry x="1010" y="40" width="120" height="32" as="geometry"/></mxCell>
        <mxCell id="c18" value="60" style="text;html=1;" vertex="1" parent="1"><mxGeometry x="1130" y="40" width="170" height="32" as="geometry"/></mxCell>
        <mxCell id="c19" value="16,384" style="text;html=1;" vertex="1" parent="1"><mxGeometry x="1300" y="40" width="120" height="32" as="geometry"/></mxCell>
        <mxCell id="c110" value="128" style="text;html=1;" vertex="1" parent="1"><mxGeometry x="1420" y="40" width="150" height="32" as="geometry"/></mxCell>
        <!-- Row 2: Threads -->
        <mxCell id="c21" value="-" style="text;html=1;" vertex="1" parent="1"><mxGeometry x="200" y="72" width="120" height="32" as="geometry"/></mxCell>
        <mxCell id="c22" value="48" style="text;html=1;" vertex="1" parent="1"><mxGeometry x="320" y="72" width="140" height="32" as="geometry"/></mxCell>
        <mxCell id="c23" value="-" style="text;html=1;" vertex="1" parent="1"><mxGeometry x="460" y="72" width="120" height="32" as="geometry"/></mxCell>
        <mxCell id="c24" value="56" style="text;html=1;" vertex="1" parent="1"><mxGeometry x="580" y="72" width="150" height="32" as="geometry"/></mxCell>
        <mxCell id="c25" value="-" style="text;html=1;" vertex="1" parent="1"><mxGeometry x="730" y="72" width="120" height="32" as="geometry"/></mxCell>
        <mxCell id="c26" value="112" style="text;html=1;" vertex="1" parent="1"><mxGeometry x="850" y="72" width="160" height="32" as="geometry"/></mxCell>
        <mxCell id="c27" value="-" style="text;html=1;" vertex="1" parent="1"><mxGeometry x="1010" y="72" width="120" height="32" as="geometry"/></mxCell>
        <mxCell id="c28" value="120" style="text;html=1;" vertex="1" parent="1"><mxGeometry x="1130" y="72" width="170" height="32" as="geometry"/></mxCell>
        <mxCell id="c29" value="-" style="text;html=1;" vertex="1" parent="1"><mxGeometry x="1300" y="72" width="120" height="32" as="geometry"/></mxCell>
        <mxCell id="c210" value="128" style="text;html=1;" vertex="1" parent="1"><mxGeometry x="1420" y="72" width="150" height="32" as="geometry"/></mxCell>
        <!-- Row 3: Peak INT32 TIPS -->
        <mxCell id="c31" value="10.6" style="text;html=1;" vertex="1" parent="1"><mxGeometry x="200" y="104" width="120" height="32" as="geometry"/></mxCell>
        <mxCell id="c32" value="0.34" style="text;html=1;" vertex="1" parent="1"><mxGeometry x="320" y="104" width="140" height="32" as="geometry"/></mxCell>
        <mxCell id="c33" value="15.7" style="text;html=1;" vertex="1" parent="1"><mxGeometry x="460" y="104" width="120" height="32" as="geometry"/></mxCell>
        <mxCell id="c34" value="2.2" style="text;html=1;" vertex="1" parent="1"><mxGeometry x="580" y="104" width="150" height="32" as="geometry"/></mxCell>
        <mxCell id="c35" value="19.5" style="text;html=1;" vertex="1" parent="1"><mxGeometry x="730" y="104" width="120" height="32" as="geometry"/></mxCell>
        <mxCell id="c36" value="8.9" style="text;html=1;" vertex="1" parent="1"><mxGeometry x="850" y="104" width="160" height="32" as="geometry"/></mxCell>
        <mxCell id="c37" value="40" style="text;html=1;" vertex="1" parent="1"><mxGeometry x="1010" y="104" width="120" height="32" as="geometry"/></mxCell>
        <mxCell id="c38" value="13" style="text;html=1;" vertex="1" parent="1"><mxGeometry x="1130" y="104" width="170" height="32" as="geometry"/></mxCell>
        <mxCell id="c39" value="41" style="text;html=1;" vertex="1" parent="1"><mxGeometry x="1300" y="104" width="120" height="32" as="geometry"/></mxCell>
        <mxCell id="c310" value="24" style="text;html=1;" vertex="1" parent="1"><mxGeometry x="1420" y="104" width="150" height="32" as="geometry"/></mxCell>
        <!-- Row 4: Peak FP32 TFLOPS -->
        <mxCell id="c41" value="10.6" style="text;html=1;" vertex="1" parent="1"><mxGeometry x="200" y="136" width="120" height="32" as="geometry"/></mxCell>
        <mxCell id="c42" value="0.03" style="text;html=1;" vertex="1" parent="1"><mxGeometry x="320" y="136" width="140" height="32" as="geometry"/></mxCell>
        <mxCell id="c43" value="15.7" style="text;html=1;" vertex="1" parent="1"><mxGeometry x="460" y="136" width="120" height="32" as="geometry"/></mxCell>
        <mxCell id="c44" value="0.04" style="text;html=1;" vertex="1" parent="1"><mxGeometry x="580" y="136" width="150" height="32" as="geometry"/></mxCell>
        <mxCell id="c45" value="19.5" style="text;html=1;" vertex="1" parent="1"><mxGeometry x="730" y="136" width="120" height="32" as="geometry"/></mxCell>
        <mxCell id="c46" value="0.075" style="text;html=1;" vertex="1" parent="1"><mxGeometry x="850" y="136" width="160" height="32" as="geometry"/></mxCell>
        <mxCell id="c47" value="39" style="text;html=1;" vertex="1" parent="1"><mxGeometry x="1010" y="136" width="120" height="32" as="geometry"/></mxCell>
        <mxCell id="c48" value="0.11" style="text;html=1;" vertex="1" parent="1"><mxGeometry x="1130" y="136" width="170" height="32" as="geometry"/></mxCell>
        <mxCell id="c49" value="39.9" style="text;html=1;" vertex="1" parent="1"><mxGeometry x="1300" y="136" width="120" height="32" as="geometry"/></mxCell>
        <mxCell id="c410" value="0.23" style="text;html=1;" vertex="1" parent="1"><mxGeometry x="1420" y="136" width="150" height="32" as="geometry"/></mxCell>
        <!-- Row 5: Peak FP64 TFLOPS -->
        <mxCell id="c51" value="5.3" style="text;html=1;" vertex="1" parent="1"><mxGeometry x="200" y="168" width="120" height="32" as="geometry"/></mxCell>
        <mxCell id="c52" value="0.03" style="text;html=1;" vertex="1" parent="1"><mxGeometry x="320" y="168" width="140" height="32" as="geometry"/></mxCell>
        <mxCell id="c53" value="7.8" style="text;html=1;" vertex="1" parent="1"><mxGeometry x="460" y="168" width="120" height="32" as="geometry"/></mxCell>
        <mxCell id="c54" value="0.04" style="text;html=1;" vertex="1" parent="1"><mxGeometry x="580" y="168" width="150" height="32" as="geometry"/></mxCell>
        <mxCell id="c55" value="9.7" style="text;html=1;" vertex="1" parent="1"><mxGeometry x="730" y="168" width="120" height="32" as="geometry"/></mxCell>
        <mxCell id="c56" value="0.075" style="text;html=1;" vertex="1" parent="1"><mxGeometry x="850" y="168" width="160" height="32" as="geometry"/></mxCell>
        <mxCell id="c57" value="19.5" style="text;html=1;" vertex="1" parent="1"><mxGeometry x="1010" y="168" width="120" height="32" as="geometry"/></mxCell>
        <mxCell id="c58" value="0.11" style="text;html=1;" vertex="1" parent="1"><mxGeometry x="1130" y="168" width="170" height="32" as="geometry"/></mxCell>
        <mxCell id="c59" value="19.7" style="text;html=1;" vertex="1" parent="1"><mxGeometry x="1300" y="168" width="120" height="32" as="geometry"/></mxCell>
        <mxCell id="c510" value="0.23" style="text;html=1;" vertex="1" parent="1"><mxGeometry x="1420" y="168" width="150" height="32" as="geometry"/></mxCell>
        <!-- Row 6: Memory Bandwidth (GB/s) -->
        <mxCell id="c61" value="732" style="text;html=1;" vertex="1" parent="1"><mxGeometry x="200" y="200" width="120" height="32" as="geometry"/></mxCell>
        <mxCell id="c62" value="115" style="text;html=1;" vertex="1" parent="1"><mxGeometry x="320" y="200" width="140" height="32" as="geometry"/></mxCell>
        <mxCell id="c63" value="900" style="text;html=1;" vertex="1" parent="1"><mxGeometry x="460" y="200" width="120" height="32" as="geometry"/></mxCell>
        <mxCell id="c64" value="134" style="text;html=1;" vertex="1" parent="1"><mxGeometry x="580" y="200" width="150" height="32" as="geometry"/></mxCell>
        <mxCell id="c65" value="1,600" style="text;html=1;" vertex="1" parent="1"><mxGeometry x="730" y="200" width="120" height="32" as="geometry"/></mxCell>
        <mxCell id="c66" value="400" style="text;html=1;" vertex="1" parent="1"><mxGeometry x="850" y="200" width="160" height="32" as="geometry"/></mxCell>
        <mxCell id="c67" value="3,350" style="text;html=1;" vertex="1" parent="1"><mxGeometry x="1010" y="200" width="120" height="32" as="geometry"/></mxCell>
        <mxCell id="c68" value="460" style="text;html=1;" vertex="1" parent="1"><mxGeometry x="1130" y="200" width="170" height="32" as="geometry"/></mxCell>
        <mxCell id="c69" value="3,900" style="text;html=1;" vertex="1" parent="1"><mxGeometry x="1300" y="200" width="120" height="32" as="geometry"/></mxCell>
        <mxCell id="c610" value="480" style="text;html=1;" vertex="1" parent="1"><mxGeometry x="1420" y="200" width="150" height="32" as="geometry"/></mxCell>
        <!-- Row 7: Approx. Cost (MSRP, USD) -->
        <mxCell id="c71" value="~9,000" style="text;html=1;" vertex="1" parent="1"><mxGeometry x="200" y="232" width="120" height="32" as="geometry"/></mxCell>
        <mxCell id="c72" value="~7,500" style="text;html=1;" vertex="1" parent="1"><mxGeometry x="320" y="232" width="140" height="32" as="geometry"/></mxCell>
        <mxCell id="c73" value="~10,000–12,000" style="text;html=1;" vertex="1" parent="1"><mxGeometry x="460" y="232" width="120" height="32" as="geometry"/></mxCell>
        <mxCell id="c74" value="~10,000" style="text;html=1;" vertex="1" parent="1"><mxGeometry x="580" y="232" width="150" height="32" as="geometry"/></mxCell>
        <mxCell id="c75" value="~11,000–15,000" style="text;html=1;" vertex="1" parent="1"><mxGeometry x="730" y="232" width="120" height="32" as="geometry"/></mxCell>
        <mxCell id="c76" value="~25,000" style="text;html=1;" vertex="1" parent="1"><mxGeometry x="850" y="232" width="160" height="32" as="geometry"/></mxCell>
        <mxCell id="c77" value="~35,000–40,000" style="text;html=1;" vertex="1" parent="1"><mxGeometry x="1010" y="232" width="120" height="32" as="geometry"/></mxCell>
        <mxCell id="c78" value="~11,000" style="text;html=1;" vertex="1" parent="1"><mxGeometry x="1130" y="232" width="170" height="32" as="geometry"/></mxCell>
        <mxCell id="c79" value="~30,000–40,000*" style="text;html=1;" vertex="1" parent="1"><mxGeometry x="1300" y="232" width="120" height="32" as="geometry"/></mxCell>
        <mxCell id="c710" value="~10,000–14,000" style="text;html=1;" vertex="1" parent="1"><mxGeometry x="1420" y="232" width="150" height="32" as="geometry"/></mxCell>
        <!-- Row 8: Peak Power (W) -->
        <mxCell id="c81" value="300" style="text;html=1;" vertex="1" parent="1"><mxGeometry x="200" y="264" width="120" height="32" as="geometry"/></mxCell>
        <mxCell id="c82" value="165" style="text;html=1;" vertex="1" parent="1"><mxGeometry x="320" y="264" width="140" height="32" as="geometry"/></mxCell>
        <mxCell id="c83" value="300" style="text;html=1;" vertex="1" parent="1"><mxGeometry x="460" y="264" width="120" height="32" as="geometry"/></mxCell>
        <mxCell id="c84" value="205" style="text;html=1;" vertex="1" parent="1"><mxGeometry x="580" y="264" width="150" height="32" as="geometry"/></mxCell>
        <mxCell id="c85" value="400" style="text;html=1;" vertex="1" parent="1"><mxGeometry x="730" y="264" width="120" height="32" as="geometry"/></mxCell>
        <mxCell id="c86" value="400" style="text;html=1;" vertex="1" parent="1"><mxGeometry x="850" y="264" width="160" height="32" as="geometry"/></mxCell>
        <mxCell id="c87" value="700" style="text;html=1;" vertex="1" parent="1"><mxGeometry x="1010" y="264" width="120" height="32" as="geometry"/></mxCell>
        <mxCell id="c88" value="350" style="text;html=1;" vertex="1" parent="1"><mxGeometry x="1130" y="264" width="170" height="32" as="geometry"/></mxCell>
        <mxCell id="c89" value="700" style="text;html=1;" vertex="1" parent="1"><mxGeometry x="1300" y="264" width="120" height="32" as="geometry"/></mxCell>
        <mxCell id="c810" value="350" style="text;html=1;" vertex="1" parent="1"><mxGeometry x="1420" y="264" width="150" height="32" as="geometry"/></mxCell>
      </root>
    </mxGraphModel>
  </diagram>
</mxfile>
